<svg width="27" height="27" viewBox="0 0 27 27" fill="none" xmlns="http://www.w3.org/2000/svg">
<path d="M12.9374 7.87493C13.6833 7.87493 14.3986 8.17124 14.9261 8.69869C15.4535 9.22614 15.7499 9.94151 15.7499 10.6874C15.7499 11.4333 15.4535 12.1487 14.9261 12.6762C14.3986 13.2036 13.6833 13.4999 12.9374 13.4999C12.1914 13.4999 11.4761 13.2036 10.9486 12.6762C10.4212 12.1487 10.1249 11.4333 10.1249 10.6874C10.1249 9.94151 10.4212 9.22614 10.9486 8.69869C11.4761 8.17124 12.1914 7.87493 12.9374 7.87493ZM12.9374 8.99993C12.4898 8.99993 12.0606 9.17772 11.7441 9.49418C11.4276 9.81065 11.2499 10.2399 11.2499 10.6874C11.2499 11.135 11.4276 11.5642 11.7441 11.8807C12.0606 12.1971 12.4898 12.3749 12.9374 12.3749C13.3849 12.3749 13.8141 12.1971 14.1306 11.8807C14.4471 11.5642 14.6249 11.135 14.6249 10.6874C14.6249 10.2399 14.4471 9.81065 14.1306 9.49418C13.8141 9.17772 13.3849 8.99993 12.9374 8.99993ZM7.64985 13.9016L12.9374 22.5978L18.2249 13.9016C18.7951 12.9633 19.1054 11.8902 19.124 10.7924C19.1425 9.69463 18.8686 8.61167 18.3304 7.6547C17.7922 6.69772 17.009 5.9012 16.0612 5.34688C15.1135 4.79256 14.0353 4.50041 12.9374 4.50041C11.8394 4.50041 10.7612 4.79256 9.81348 5.34688C8.86573 5.9012 8.08255 6.69772 7.54432 7.6547C7.00609 8.61167 6.73219 9.69463 6.75073 10.7924C6.76928 11.8902 7.0796 12.9633 7.64985 13.9016ZM19.1856 14.4866L12.9374 24.7634L6.6891 14.4866C6.01536 13.3777 5.64879 12.1095 5.62701 10.8122C5.60522 9.51492 5.92901 8.23517 6.56514 7.10432C7.20126 5.97347 8.12683 5.03223 9.24684 4.37721C10.3669 3.72218 11.641 3.37695 12.9385 3.37695C14.236 3.37695 15.5101 3.72218 16.6301 4.37721C17.7501 5.03223 18.6757 5.97347 19.3118 7.10432C19.9479 8.23517 20.2717 9.51492 20.2499 10.8122C20.2282 12.1095 19.8616 13.3777 19.1879 14.4866H19.1856Z" fill="#E3AD24"/>
</svg>
