<svg width="35" height="35" viewBox="0 0 35 35" fill="none" xmlns="http://www.w3.org/2000/svg">
<path d="M17.5 0.546875C8.13422 0.546875 0.546875 8.13531 0.546875 17.5C0.546875 26.8647 8.13531 34.4531 17.5 34.4531C26.8658 34.4531 34.4531 26.8647 34.4531 17.5C34.4531 8.13531 26.8647 0.546875 17.5 0.546875ZM25.8267 12.1614L23.0442 25.2733C22.8386 26.203 22.2852 26.4283 21.513 25.9908L17.2747 22.867L15.2305 24.8358C15.0052 25.0611 14.8138 25.2525 14.3763 25.2525L14.677 20.9387L22.5312 13.8425C22.8736 13.5417 22.4558 13.3711 22.0041 13.6719L12.297 19.7827L8.11344 18.4767C7.20453 18.1902 7.18375 17.5678 8.30484 17.1303L24.6498 10.827C25.4089 10.5536 26.0717 11.0119 25.8256 12.1603L25.8267 12.1614Z" fill="#2F3640"/>
</svg>
