<svg width="35" height="35" viewBox="0 0 35 35" fill="none" xmlns="http://www.w3.org/2000/svg">
<path d="M16.6227 0.00509289C13.814 0.0389991 7.77536 0.500562 4.39786 3.59916C1.88551 6.08853 1.00833 9.769 0.905513 14.3201C0.8202 18.8548 0.717388 27.3707 8.92598 29.6895V33.2212C8.92598 33.2212 8.87458 34.6343 9.80864 34.9242C10.9593 35.2884 11.6144 34.2012 12.7082 33.0331L14.748 30.7263C20.3644 31.1934 24.6661 30.1171 25.1616 29.9574C26.3013 29.5932 32.7205 28.7729 33.7694 20.2559C34.8457 11.4599 33.2455 5.91791 30.3569 3.41103H30.3394C29.4677 2.60822 25.9644 0.0554054 18.1375 0.0269679C18.1375 0.0269679 17.5568 -0.0124071 16.6227 0.00399915V0.00509289ZM16.719 2.47806C17.5163 2.47259 18.0008 2.5065 18.0008 2.5065C24.6257 2.524 27.7877 4.51791 28.5336 5.18947C30.9661 7.27416 32.2196 12.2704 31.3019 19.6138C30.4302 26.7342 25.2239 27.1848 24.2604 27.4921C23.8502 27.6234 20.0615 28.5574 15.2883 28.2501C15.2883 28.2501 11.7336 32.5398 10.6224 33.6445C10.4463 33.8381 10.2407 33.8949 10.1094 33.8665C9.92129 33.8206 9.86442 33.5876 9.87536 33.2682L9.90926 27.4068C2.94755 25.4818 3.3577 18.2182 3.43208 14.424C3.51739 10.6298 4.22942 7.52572 6.34911 5.42353C9.2027 2.84337 14.3302 2.49556 16.7168 2.47806H16.719ZM17.2439 6.27119C17.1867 6.27061 17.1298 6.28138 17.0767 6.30287C17.0236 6.32437 16.9752 6.35616 16.9345 6.39642C16.8937 6.43669 16.8613 6.48462 16.8391 6.53746C16.817 6.59031 16.8055 6.64701 16.8054 6.70431C16.8054 6.94931 17.0044 7.14291 17.2439 7.14291C18.3284 7.12228 19.4062 7.31656 20.4152 7.71453C21.4242 8.1125 22.3445 8.70629 23.1229 9.46166C24.7121 11.0049 25.4865 13.0787 25.516 15.7901C25.516 16.0296 25.7096 16.2287 25.9546 16.2287V16.2112C26.07 16.2115 26.1809 16.1661 26.2631 16.085C26.3453 16.0038 26.392 15.8935 26.3932 15.7781C26.4463 14.5018 26.2393 13.2281 25.7849 12.0343C25.3304 10.8406 24.6379 9.75167 23.7496 8.83384C22.0182 7.14181 19.8241 6.27009 17.2439 6.27009V6.27119ZM11.4788 7.27416C11.1692 7.22892 10.8535 7.29106 10.5841 7.45025H10.5611C9.9358 7.81681 9.37247 8.2801 8.89208 8.82291C8.49286 9.28447 8.27629 9.7515 8.21942 10.201C8.18551 10.469 8.20848 10.737 8.28833 10.9929L8.31676 11.0104C8.76629 12.3317 9.35364 13.6026 10.0711 14.7992C10.9954 16.4802 12.1328 18.0349 13.4552 19.4246L13.4946 19.4815L13.5569 19.5274L13.5963 19.5734L13.6422 19.6127C15.037 20.939 16.5955 22.0818 18.2797 23.0132C20.2047 24.061 21.3729 24.5565 22.0739 24.7621V24.7731C22.2796 24.8354 22.4666 24.8638 22.6547 24.8638C23.2522 24.8201 23.8179 24.5775 24.2614 24.1748C24.8018 23.6943 25.2599 23.1286 25.6177 22.5002V22.4893C25.9535 21.8571 25.8397 21.2588 25.3552 20.8542C24.3848 20.006 23.3355 19.2526 22.2216 18.6043C21.4757 18.1996 20.7177 18.4446 20.4104 18.8548L19.7552 19.6806C19.4194 20.0907 18.8091 20.0338 18.8091 20.0338L18.7916 20.0448C14.2405 18.8821 13.0265 14.2742 13.0265 14.2742C13.0265 14.2742 12.9696 13.6474 13.3907 13.3281L14.211 12.6674C14.6036 12.3481 14.8771 11.5912 14.456 10.8442C13.8122 9.7287 13.0605 8.67913 12.2116 7.71056C12.026 7.48222 11.7657 7.32686 11.4766 7.27197L11.4788 7.27416ZM18.0008 8.57353C17.42 8.57353 17.42 9.45072 18.0063 9.45072C18.7285 9.46243 19.4413 9.61635 20.1039 9.90368C20.7666 10.191 21.3662 10.6061 21.8683 11.1252C22.3264 11.6306 22.6784 12.2227 22.9035 12.8665C23.1286 13.5104 23.2221 14.1929 23.1786 14.8735C23.1806 14.9887 23.2277 15.0986 23.3096 15.1795C23.3916 15.2605 23.502 15.3061 23.6172 15.3067L23.6347 15.3296C23.7508 15.3288 23.8618 15.2823 23.9439 15.2002C24.026 15.1181 24.0725 15.0071 24.0733 14.891C24.1127 13.1531 23.5724 11.6951 22.5125 10.527C21.4472 9.35884 19.9608 8.70369 18.0632 8.57353H18.0008ZM18.7194 10.9317C18.1211 10.9142 18.0982 11.8088 18.691 11.8263C20.1325 11.9007 20.8325 12.6292 20.9244 14.1276C20.9264 14.2413 20.9729 14.3498 21.0538 14.4297C21.1348 14.5096 21.2438 14.5547 21.3575 14.5552H21.375C21.4335 14.5527 21.4909 14.5386 21.5439 14.5137C21.5969 14.4887 21.6443 14.4535 21.6835 14.41C21.7227 14.3666 21.7529 14.3157 21.7722 14.2605C21.7915 14.2052 21.7997 14.1467 21.7961 14.0882C21.6933 12.1348 20.628 11.0345 18.7369 10.9327H18.7194V10.9317Z" fill="#2F3640"/>
</svg>
