<svg width="45" height="46" viewBox="0 0 45 46" fill="none" xmlns="http://www.w3.org/2000/svg">
<g clip-path="url(#clip0)">
<path d="M28.125 45.209V31.8936H30.9375C31.7285 31.8936 32.395 31.7104 32.937 31.3442C33.479 30.978 33.75 30.5312 33.75 30.0039V28.1582C33.75 27.6309 33.479 27.1841 32.937 26.8179C32.395 26.4517 31.7285 26.2686 30.9375 26.2686H28.125V20.6436C28.125 19.8525 28.4033 19.186 28.96 18.644C29.5166 18.1021 30.1831 17.8311 30.9595 17.8311C31.7358 17.8311 32.395 17.6479 32.937 17.2817C33.479 16.9155 33.75 16.4688 33.75 15.9414V14.0957C33.75 13.5684 33.479 13.1216 32.937 12.7554C32.395 12.3892 31.7285 12.2061 30.9375 12.2061C27.832 12.2061 25.6494 12.8359 24.3896 14.0957C23.1299 15.3555 22.5 17.5381 22.5 20.6436V26.2686C21.7383 26.2686 21.0791 26.4517 20.5225 26.8179C19.9658 27.1841 19.6875 27.6309 19.6875 28.1582V30.0039C19.6875 30.5312 19.9658 30.978 20.5225 31.3442C21.0791 31.7104 21.7383 31.8936 22.5 31.8936V45.9561C19.4531 45.9561 16.5381 45.3628 13.7549 44.1763C10.9717 42.9897 8.57666 41.3931 6.56982 39.3862C4.56299 37.3794 2.96631 34.9844 1.77979 32.2012C0.593262 29.418 0 26.5029 0 23.4561C0 20.4092 0.593262 17.4941 1.77979 14.7109C2.96631 11.9277 4.56299 9.53271 6.56982 7.52588C8.57666 5.51904 10.9717 3.92236 13.7549 2.73584C16.5381 1.54932 19.4531 0.956055 22.5 0.956055C25.5469 0.956055 28.4619 1.54932 31.2451 2.73584C34.0283 3.92236 36.4233 5.51904 38.4302 7.52588C40.437 9.53271 42.0337 11.9277 43.2202 14.7109C44.4067 17.4941 45 20.4092 45 23.4561C45 28.6416 43.4106 33.2485 40.2319 37.2769C37.0532 41.3052 33.0176 43.9492 28.125 45.209Z" fill="white"/>
</g>
<defs>
<clipPath id="clip0">
<rect width="45" height="45" fill="white" transform="translate(0 0.956055)"/>
</clipPath>
</defs>
</svg>
