<svg width="45" height="46" viewBox="0 0 45 46" fill="none" xmlns="http://www.w3.org/2000/svg">
<path d="M22.5 45.9561C19.4531 45.9561 16.5381 45.3628 13.7549 44.1763C10.9717 42.9897 8.57666 41.3931 6.56982 39.3862C4.56299 37.3794 2.96631 34.9844 1.77979 32.2012C0.593262 29.418 0 26.5029 0 23.4561C0 20.4092 0.593262 17.4941 1.77979 14.7109C2.96631 11.9277 4.56299 9.53271 6.56982 7.52588C8.57666 5.51904 10.9717 3.92236 13.7549 2.73584C16.5381 1.54932 19.4531 0.956055 22.5 0.956055C25.5469 0.956055 28.4619 1.54932 31.2451 2.73584C34.0283 3.92236 36.4233 5.51904 38.4302 7.52588C40.437 9.53271 42.0337 11.9277 43.2202 14.7109C44.4067 17.4941 45 20.4092 45 23.4561C45 26.5029 44.4067 29.418 43.2202 32.2012C42.0337 34.9844 40.437 37.3794 38.4302 39.3862C36.4233 41.3931 34.0283 42.9897 31.2451 44.1763C28.4619 45.3628 25.5469 45.9561 22.5 45.9561ZM33.75 15.0186C33.75 14.2568 33.479 13.5977 32.937 13.041C32.395 12.4844 31.7285 12.2061 30.9375 12.2061H14.0625C13.3008 12.2061 12.6416 12.4844 12.085 13.041C11.5283 13.5977 11.25 14.2568 11.25 15.0186V17.8311H16.2598C17.959 15.9561 20.0391 15.0186 22.5 15.0186C24.9609 15.0186 27.041 15.9561 28.7402 17.8311H33.75V15.0186ZM16.875 23.4561C16.875 25.0088 17.4243 26.3345 18.5229 27.4331C19.6216 28.5317 20.9473 29.0811 22.5 29.0811C24.0527 29.0811 25.3784 28.5317 26.4771 27.4331C27.5757 26.3345 28.125 25.0088 28.125 23.4561C28.125 21.9033 27.5757 20.5776 26.4771 19.479C25.3784 18.3804 24.0527 17.8311 22.5 17.8311C20.9473 17.8311 19.6216 18.3804 18.5229 19.479C17.4243 20.5776 16.875 21.9033 16.875 23.4561ZM33.75 20.6436H30.4102C30.7617 21.6104 30.9375 22.5479 30.9375 23.4561C30.9375 25.7998 30.1172 27.792 28.4766 29.4326C26.8359 31.0732 24.8438 31.8936 22.5 31.8936C20.1562 31.8936 18.1641 31.0732 16.5234 29.4326C14.8828 27.792 14.0625 25.7998 14.0625 23.4561C14.0625 22.5479 14.2383 21.6104 14.5898 20.6436H11.25V31.8936C11.25 32.6846 11.521 33.3511 12.063 33.8931C12.605 34.4351 13.2715 34.7061 14.0625 34.7061H30.9375C31.7285 34.7061 32.395 34.4351 32.937 33.8931C33.479 33.3511 33.75 32.6846 33.75 31.8936V20.6436Z" fill="white"/>
</svg>
