<svg width="333" height="733" viewBox="0 0 333 733" fill="none" xmlns="http://www.w3.org/2000/svg">
<path opacity="0.7" d="M0.265533 75.8043L8.30426 77.2345L9.73447 69.1957L1.69574 67.7655L0.265533 75.8043ZM105.734 2.19574L97.6957 0.765533L96.2655 8.80426L104.304 10.2345L105.734 2.19574ZM114.472 215.666L121.666 219.528L125.528 212.334L118.334 208.472L114.472 215.666ZM240.028 177.834L232.834 173.972L228.972 181.166L236.166 185.028L240.028 177.834ZM144.227 353L150 358.773L155.773 353L150 347.227L144.227 353ZM332.773 353L327 347.227L321.227 353L327 358.773L332.773 353ZM121.821 478.449L124.449 486.179L132.179 483.551L129.551 475.821L121.821 478.449ZM233.679 533.551L231.051 525.821L223.321 528.449L225.949 536.179L233.679 533.551ZM8.37362 632.462L8.46189 640.626L16.6264 640.538L16.5381 632.374L8.37362 632.462ZM110.126 732.038L110.038 723.874L101.874 723.962L101.962 732.126L110.126 732.038ZM5.57232 73.32L101.572 6.32003L100.428 4.67997L4.42768 71.68L5.57232 73.32ZM120.288 214.957L234.788 180.457L234.212 178.543L119.712 213.043L120.288 214.957ZM150 354H327V352H150V354ZM126.558 481.897L228.058 531.897L228.942 530.103L127.442 480.103L126.558 481.897ZM11.8006 637.215L105.301 728.715L106.699 727.285L13.1994 635.785L11.8006 637.215Z" fill="#2F3640"/>
</svg>
