<svg width="27" height="27" viewBox="0 0 27 27" fill="none" xmlns="http://www.w3.org/2000/svg">
<path d="M5.78947 5H22.2105C23.2156 5 24.1794 5.37928 24.8901 6.05442C25.6008 6.72955 26 7.64522 26 8.6V19.4C26 20.3548 25.6008 21.2705 24.8901 21.9456C24.1794 22.6207 23.2156 23 22.2105 23H5.78947C4.78444 23 3.82058 22.6207 3.10991 21.9456C2.39925 21.2705 2 20.3548 2 19.4V8.6C2 7.64522 2.39925 6.72955 3.10991 6.05442C3.82058 5.37928 4.78444 5 5.78947 5ZM5.78947 6.2C5.17305 6.2 4.60716 6.41 4.16884 6.7592L14 12.824L23.8312 6.7592C23.3771 6.3973 22.8032 6.19926 22.2105 6.2H5.78947ZM14 14.2544L3.43242 7.736C3.32036 8.01161 3.26297 8.30454 3.26316 8.6V19.4C3.26316 20.0365 3.52932 20.647 4.0031 21.0971C4.47687 21.5471 5.11945 21.8 5.78947 21.8H22.2105C22.8805 21.8 23.5231 21.5471 23.9969 21.0971C24.4707 20.647 24.7368 20.0365 24.7368 19.4V8.6C24.7368 8.2952 24.6775 8.0036 24.5676 7.736L14 14.2532V14.2544Z" fill="#E3AD24"/>
</svg>
