<svg width="27" height="27" viewBox="0 0 27 27" fill="none" xmlns="http://www.w3.org/2000/svg">
<path d="M22.3877 24.0752C23.3181 24.0752 24.0752 23.3181 24.0752 22.3877V18.4502C24.0752 17.5198 23.3181 16.7627 22.3877 16.7627C21.0714 16.7627 19.7777 16.5557 18.5402 16.1473C18.2444 16.0539 17.9288 16.0426 17.627 16.1145C17.3253 16.1864 17.0487 16.3389 16.8268 16.5557L15.2068 18.1757C12.4068 16.6556 10.1072 14.3568 8.58619 11.5573L10.1927 9.9407C10.6562 9.51095 10.8227 8.85732 10.6247 8.22845C10.2172 6.98903 10.0105 5.69239 10.0127 4.3877C10.0127 3.45732 9.25557 2.7002 8.3252 2.7002H4.3877C3.45732 2.7002 2.7002 3.45732 2.7002 4.3877C2.7002 15.2439 11.5314 24.0752 22.3877 24.0752ZM4.3877 3.8252H8.3252C8.47438 3.8252 8.61745 3.88446 8.72294 3.98995C8.82843 4.09544 8.8877 4.23851 8.8877 4.3877C8.8877 5.82432 9.1127 7.23507 9.55482 8.5727C9.5873 8.66976 9.5911 8.77414 9.56576 8.87331C9.54042 8.97248 9.48701 9.06224 9.41195 9.13182L7.21145 11.3436C9.05307 14.9751 11.7733 17.6953 15.4217 19.5527L17.6143 17.3589C17.6891 17.2849 17.7827 17.2326 17.8849 17.2076C17.9872 17.1827 18.0943 17.186 18.1948 17.2172C19.5403 17.6627 20.9511 17.8877 22.3877 17.8877C22.6971 17.8877 22.9502 18.1408 22.9502 18.4502V22.3877C22.9502 22.6971 22.6971 22.9502 22.3877 22.9502C12.1524 22.9502 3.8252 14.6229 3.8252 4.3877C3.8252 4.23851 3.88446 4.09544 3.98995 3.98995C4.09544 3.88446 4.23851 3.8252 4.3877 3.8252Z" fill="#E3AD24"/>
</svg>
