<svg width="35" height="35" viewBox="0 0 35 35" fill="none" xmlns="http://www.w3.org/2000/svg">
<path d="M17.4998 0C12.743 0 12.1502 0.0229688 10.2887 0.101719C8.41945 0.193594 7.15508 0.483438 6.03945 0.916562C4.87183 1.35737 3.8144 2.04752 2.94086 2.93891C2.04698 3.8104 1.35645 4.86843 0.918516 6.0375C0.485391 7.15312 0.195547 8.4175 0.103672 10.2867C0.0194531 12.1494 0.00195312 12.7411 0.00195312 17.4978C0.00195312 22.2545 0.0249219 22.8473 0.103672 24.7089C0.195547 26.5727 0.485391 27.8425 0.918516 28.9581C1.35932 30.1257 2.04947 31.1832 2.94086 32.0567C3.81236 32.9506 4.87038 33.6411 6.03945 34.0791C7.15508 34.5067 8.42492 34.802 10.2887 34.8939C12.1513 34.9781 12.743 34.9956 17.4998 34.9956C22.2565 34.9956 22.8493 34.9727 24.7109 34.8939C26.5746 34.802 27.8444 34.5056 28.9601 34.0791C30.1277 33.6383 31.1851 32.9481 32.0587 32.0567C32.9537 31.1862 33.6444 30.1279 34.081 28.9581C34.5087 27.8425 34.804 26.5727 34.8959 24.7089C34.9801 22.8463 34.9976 22.2545 34.9976 17.4978C34.9976 12.7411 34.9746 12.1483 34.8959 10.2867C34.804 8.42297 34.5076 7.14656 34.081 6.0375C33.6402 4.86988 32.9501 3.81244 32.0587 2.93891C31.1881 2.04388 30.1298 1.35317 28.9601 0.916562C27.8444 0.483438 26.5746 0.193594 24.7109 0.101719C22.8482 0.0175 22.2565 0 17.4998 0ZM17.4998 3.15C22.1712 3.15 22.729 3.17297 24.5752 3.25172C26.2782 3.33156 27.2057 3.61594 27.8215 3.85656C28.5828 4.13757 29.2718 4.58484 29.8384 5.16578C30.4183 5.72997 30.8639 6.41741 31.1421 7.17719C31.3827 7.79297 31.6671 8.72047 31.7469 10.4234C31.8257 12.2697 31.8487 12.8286 31.8487 17.4989C31.8487 22.1692 31.8257 22.7281 31.7404 24.5744C31.6485 26.2773 31.3641 27.2048 31.1246 27.8206C30.7932 28.642 30.4235 29.2163 29.8132 29.8375C29.2447 30.4148 28.5561 30.8599 27.7963 31.1413C27.1882 31.3819 26.2476 31.6663 24.538 31.7461C22.6819 31.8248 22.1351 31.8478 17.4516 31.8478C12.7682 31.8478 12.2224 31.8248 10.3641 31.7395C8.66117 31.6477 7.72164 31.3633 7.10586 31.1237C6.27461 30.7923 5.70477 30.4227 5.09445 29.8123C4.47867 29.1966 4.08711 28.6103 3.78523 27.7955C3.54023 27.1873 3.26023 26.2467 3.16945 24.5372C3.10711 22.703 3.07758 22.1342 3.07758 17.4727C3.07758 12.8133 3.10711 12.2434 3.16945 10.3863C3.26023 8.67672 3.54023 7.73828 3.78523 7.12797C4.08711 6.29563 4.47977 5.72687 5.09445 5.11109C5.70367 4.50187 6.27461 4.10813 7.10586 3.79969C7.72164 3.56016 8.6382 3.27578 10.3477 3.19047C12.2038 3.12375 12.7507 3.09969 17.4276 3.09969L17.4998 3.15ZM17.4998 8.51703C16.32 8.5166 15.1517 8.74866 14.0616 9.19994C12.9716 9.65122 11.9811 10.3129 11.1469 11.1471C10.3127 11.9814 9.65099 12.9718 9.19971 14.0619C8.74842 15.1519 8.51637 16.3202 8.5168 17.5C8.51637 18.6798 8.74842 19.8481 9.19971 20.9381C9.65099 22.0282 10.3127 23.0186 11.1469 23.8529C11.9811 24.6871 12.9716 25.3488 14.0616 25.8001C15.1517 26.2513 16.32 26.4834 17.4998 26.483C18.6795 26.4834 19.8478 26.2513 20.9379 25.8001C22.028 25.3488 23.0184 24.6871 23.8526 23.8529C24.6869 23.0186 25.3485 22.0282 25.7998 20.9381C26.2511 19.8481 26.4832 18.6798 26.4827 17.5C26.4832 16.3202 26.2511 15.1519 25.7998 14.0619C25.3485 12.9718 24.6869 11.9814 23.8526 11.1471C23.0184 10.3129 22.028 9.65122 20.9379 9.19994C19.8478 8.74866 18.6795 8.5166 17.4998 8.51703ZM17.4998 23.333C14.2754 23.333 11.6668 20.7244 11.6668 17.5C11.6668 14.2756 14.2754 11.667 17.4998 11.667C20.7241 11.667 23.3327 14.2756 23.3327 17.5C23.3327 20.7244 20.7241 23.333 17.4998 23.333ZM28.9448 8.15828C28.9442 8.71573 28.7223 9.25014 28.328 9.64411C27.9336 10.0381 27.3989 10.2594 26.8415 10.2594C26.5658 10.2594 26.2929 10.2051 26.0383 10.0996C25.7836 9.99413 25.5522 9.83952 25.3573 9.64462C25.1624 9.44972 25.0078 9.21834 24.9023 8.96369C24.7969 8.70903 24.7426 8.4361 24.7426 8.16047C24.7426 7.88484 24.7969 7.6119 24.9023 7.35725C25.0078 7.1026 25.1624 6.87122 25.3573 6.67632C25.5522 6.48142 25.7836 6.32681 26.0383 6.22133C26.2929 6.11585 26.5658 6.06156 26.8415 6.06156C27.9976 6.06156 28.9448 7.00219 28.9448 8.15828Z" fill="#2F3640"/>
</svg>
