<svg width="45" height="45" viewBox="0 0 45 45" fill="none" xmlns="http://www.w3.org/2000/svg">
<path d="M22.5 0.703125C10.4583 0.703125 0.703125 10.4597 0.703125 22.5C0.703125 34.5403 10.4597 44.2969 22.5 44.2969C34.5417 44.2969 44.2969 34.5403 44.2969 22.5C44.2969 10.4597 34.5403 0.703125 22.5 0.703125ZM33.2058 15.6361L29.6283 32.4942C29.3639 33.6895 28.6523 33.9792 27.6595 33.4167L22.2103 29.4005L19.582 31.9317C19.2923 32.2214 19.0462 32.4675 18.4837 32.4675L18.8705 26.9212L28.9688 17.7975C29.4089 17.4108 28.8717 17.1914 28.2909 17.5781L15.8105 25.4348L10.4316 23.7558C9.26297 23.3873 9.23625 22.5872 10.6777 22.0247L31.6927 13.9205C32.6686 13.5689 33.5208 14.1581 33.2044 15.6347L33.2058 15.6361Z" fill="white"/>
</svg>
