<svg width="45" height="45" viewBox="0 0 45 45" fill="none" xmlns="http://www.w3.org/2000/svg">
<path d="M39.6491 34.6491C37.6316 36.4327 34.7076 37.712 30.8772 38.4868C27.0468 39.2617 23.0994 39.4883 19.0351 39.1667L11.3158 44.9561V37.7193C8.77193 36.9298 6.78363 35.9064 5.35088 34.6491C3.65497 33.1579 2.33918 31.0161 1.40351 28.2237C0.467836 25.4313 0 22.5804 0 19.6711C0 16.7617 0.467836 13.9108 1.40351 11.1184C2.33918 8.32602 3.66228 6.1769 5.37281 4.67105C7.08333 3.1652 9.53216 2.01023 12.7193 1.20614C15.9064 0.402047 19.1667 0 22.5 0C25.8333 0 29.0936 0.402047 32.2807 1.20614C35.4678 2.01023 37.9167 3.1652 39.6272 4.67105C41.3377 6.1769 42.6608 8.32602 43.5965 11.1184C44.5322 13.9108 45 16.7617 45 19.6711C45 22.5804 44.5322 25.4313 43.5965 28.2237C42.6608 31.0161 41.345 33.1579 39.6491 34.6491ZM28.0263 23.9035L30.8772 24.386C30.6433 20.8772 29.2909 17.8801 26.8202 15.3947C24.3494 12.9094 21.3596 11.5497 17.8509 11.3158L18.3333 14.1667C20.848 14.4883 23.0117 15.5556 24.8246 17.3684C26.6374 19.1813 27.7047 21.3596 28.0263 23.9035ZM18.8158 17.1053L19.3421 20.2632C20.5117 20.848 21.3743 21.7105 21.9298 22.8509L25.0877 23.3772C24.7368 21.8275 23.9912 20.4898 22.8509 19.364C21.7105 18.2383 20.3655 17.4854 18.8158 17.1053ZM14.1228 19.693V16.886C14.1228 16.3889 13.9401 15.8918 13.5746 15.3947C13.2091 14.8977 12.8216 14.5395 12.4123 14.3202C12.0029 14.1009 11.6959 14.0789 11.4912 14.2544L9.47368 16.3158C8.33333 17.4561 8.16521 19.2325 8.9693 21.6447C9.77339 24.057 11.3085 26.3962 13.5746 28.6623C15.8406 30.9284 18.1798 32.4634 20.5921 33.2675C23.0044 34.0716 24.7661 33.9035 25.8772 32.7632L27.9386 30.7018C28.1433 30.5263 28.136 30.2266 27.9167 29.8026C27.6974 29.3787 27.3392 28.9912 26.8421 28.6403C26.345 28.2895 25.848 28.114 25.3509 28.114H22.5439L20.9211 29.5175C19.6345 29.1667 18.0336 28.0336 16.1184 26.1184C14.2032 24.2032 13.0702 22.5877 12.7193 21.2719L14.1228 19.693ZM16.9298 5.65789L17.3684 8.50877C20.2924 8.56725 22.9971 9.33479 25.4825 10.8114C27.9678 12.288 29.9415 14.2617 31.4035 16.7325C32.8655 19.2032 33.6404 21.9006 33.7281 24.8246L36.5789 25.307C36.5789 22.6462 36.0599 20.1023 35.0219 17.6754C33.9839 15.2485 32.5877 13.1579 30.8333 11.4035C29.0789 9.64912 26.9883 8.25292 24.5614 7.21491C22.1345 6.1769 19.5906 5.65789 16.9298 5.65789Z" fill="white"/>
</svg>
