<svg width="27" height="27" viewBox="0 0 27 27" fill="none" xmlns="http://www.w3.org/2000/svg">
<path d="M13.5 5.8358C14.6379 5.8358 15.7646 6.07071 16.8158 6.52713C17.8671 6.98355 18.8223 7.65253 19.6269 8.49588C20.4315 9.33923 21.0697 10.3404 21.5052 11.4423C21.9406 12.5442 22.1647 13.7252 22.1647 14.9179C22.1647 16.1106 21.9406 17.2916 21.5052 18.3935C21.0697 19.4954 20.4315 20.4966 19.6269 21.3399C18.8223 22.1833 17.8671 22.8522 16.8158 23.3087C15.7646 23.7651 14.6379 24 13.5 24C11.202 24 8.99807 23.0431 7.37312 21.3399C5.74817 19.6367 4.83528 17.3266 4.83528 14.9179C4.83528 12.5092 5.74817 10.1991 7.37312 8.49588C8.99807 6.79266 11.202 5.8358 13.5 5.8358ZM13.5 7.04674C11.5084 7.04674 9.59833 7.87602 8.19003 9.35215C6.78174 10.8283 5.99058 12.8303 5.99058 14.9179C5.99058 17.0055 6.78174 19.0075 8.19003 20.4836C9.59833 21.9598 11.5084 22.7891 13.5 22.7891C15.4916 22.7891 17.4017 21.9598 18.81 20.4836C20.2183 19.0075 21.0094 17.0055 21.0094 14.9179C21.0094 12.8303 20.2183 10.8283 18.81 9.35215C17.4017 7.87602 15.4916 7.04674 13.5 7.04674ZM12.9224 9.46864H14.0776V14.752L17.599 16.4728L17.1103 17.5699L12.9224 15.5234V9.46864ZM17.8324 4.92759L18.5752 4L23 7.89198L22.2571 8.81957L17.8324 4.92759ZM9.16764 4.92759L4.74286 8.81957L4 7.89198L8.42478 4L9.16764 4.92759Z" fill="#E3AD24"/>
</svg>
